Coordinates
version=1
nRows=16
nColumns=42
inDegrees=yes

Units are S.I. units (second, meters, Newtons, ...)
If the header above contains a line with 'inDegrees', this indicates whether rotational values are in degrees (yes) or radians (no).

endheader
time	pelvis_tilt	pelvis_list	pelvis_rotation	pelvis_tx	pelvis_ty	pelvis_tz	hip_flexion_r	hip_adduction_r	hip_rotation_r	knee_angle_r	knee_adduction_r	knee_angle_r_beta	ankle_angle_r	subtalar_angle_r	mtp_angle_r	hip_flexion_l	hip_adduction_l	hip_rotation_l	knee_angle_l	knee_adduction_l	knee_angle_l_beta	ankle_angle_l	subtalar_angle_l	mtp_angle_l	lumbar_extension	lumbar_bending	lumbar_rotation	arm_flex_r	arm_add_r	arm_rot_r	elbow_flex_r	pro_sup_r	wrist_flex_r	wrist_dev_r	arm_flex_l	arm_add_l	arm_rot_l	elbow_flex_l	pro_sup_l	wrist_flex_l	wrist_dev_l
     13.75000000	     -7.27827384	     -0.44836338	     -0.60191509	      0.77848094	      0.94961601	      0.48145197	     29.79809706	     -0.75878725	     -5.56596478	     20.52166118	      6.25096954	      0.35817056	     -6.08573614	     -2.25033826	    -14.08663137	      1.40815083	     -3.55421522	    -10.19838198	     38.46343393	      6.43431604	      0.67131356	     -2.70502719	      2.09343183	    -26.76679242	      0.00000000	      0.00000000	      0.00000000	      0.00000000	    -13.60296217	      0.00000000	     74.99961832	     90.00000001	      0.00000000	      0.00000000	      0.00000000	    -13.60296217	      0.00000000	     74.99961832	     90.00000001	      0.00000000	      0.00000000
     13.75500000	     -7.17299031	     -0.73229755	     -0.52813415	      0.77882979	      0.94946826	      0.48213102	     29.65220166	     -0.42896846	     -5.59028350	     21.24101710	      6.25096954	      0.37072568	     -6.04109157	     -2.45090252	    -13.59483365	      1.99008264	     -3.91940493	    -10.14460431	     40.23807554	      6.43431604	      0.70228690	     -3.71915770	      1.46692304	    -26.71577747	      0.00000000	      0.00000000	      0.00000000	      0.00000000	    -13.60763671	      0.00000000	     74.99962197	     90.00000001	      0.00000000	      0.00000000	      0.00000000	    -13.60763671	      0.00000000	     74.99962197	     90.00000001	      0.00000000	      0.00000000
     13.76000000	     -6.84681425	     -0.97518635	     -0.58442127	      0.77903230	      0.94955175	      0.48298246	     29.28134867	     -0.05662359	     -5.42606827	     21.96044035	      6.25096954	      0.38328199	     -5.83991186	     -2.65520208	    -13.51832638	      2.34045659	     -4.26458313	    -10.26702525	     42.01175913	      6.43431604	      0.73324352	     -4.76596580	      0.95004570	    -26.53177510	      0.00000000	      0.00000000	      0.00000000	      0.00000000	    -13.60895439	      0.00000000	     74.99962299	     90.00000001	      0.00000000	      0.00000000	      0.00000000	    -13.60895439	      0.00000000	     74.99962299	     90.00000001	      0.00000000	      0.00000000
     13.76500000	     -6.48106965	     -1.06920869	     -0.64469296	      0.77911109	      0.94981980	      0.48379855	     28.80484265	      0.17556762	     -5.12884455	     22.51569011	      6.25096954	      0.39297293	     -5.64461473	     -2.82330904	    -13.50620535	      2.66916784	     -4.40607749	    -10.25963187	     43.73574989	      6.43431604	      0.76333284	     -5.94270255	      0.59508391	    -26.29049040	      0.00000000	      0.00000000	      0.00000000	      0.00000000	    -13.60952917	      0.00000000	     74.99962344	     90.00000001	      0.00000000	      0.00000000	      0.00000000	    -13.60952917	      0.00000000	     74.99962344	     90.00000001	      0.00000000	      0.00000000
     13.77000000	     -6.81918950	     -1.29492795	     -0.38033014	      0.77948688	      0.94910414	      0.48419441	     29.10237176	      0.39019306	     -5.31945393	     23.23707666	      6.25096954	      0.40556350	     -5.14704887	     -3.60086477	    -12.77365736	      3.96094585	     -4.65813504	     -9.92308994	     45.70523123	      6.43431604	      0.79770677	     -7.50649105	     -1.14363882	    -26.16882242	      0.00000000	      0.00000000	      0.00000000	      0.00000000	    -13.61435376	      0.00000000	     74.99962719	     90.00000001	      0.00000000	      0.00000000	      0.00000000	    -13.61435376	      0.00000000	     74.99962719	     90.00000001	      0.00000000	      0.00000000
     13.77500000	     -6.61204640	     -1.49865530	     -0.36347074	      0.77948893	      0.94911683	      0.48470515	     28.76679912	      0.68666169	     -5.24985048	     23.79273898	      6.25096954	      0.41526163	     -4.78196408	     -3.92745112	    -12.41957358	      4.61649929	     -4.88985732	     -9.80078494	     47.60578205	      6.43431604	      0.83087764	     -8.85770052	     -2.16549377	    -25.88642480	      0.00000000	      0.00000000	      0.00000000	      0.00000000	    -13.61761324	      0.00000000	     74.99962972	     90.00000001	      0.00000000	      0.00000000	      0.00000000	    -13.61761324	      0.00000000	     74.99962972	     90.00000001	      0.00000000	      0.00000000
     13.78000000	     -6.18603227	     -1.50941206	     -0.43119448	      0.77937981	      0.94956604	      0.48548755	     28.14028269	      0.85448615	     -4.87311269	     24.19673985	      6.25096954	      0.42231278	     -4.49559503	     -4.09343455	    -12.44269858	      4.98165313	     -4.92907480	     -9.74470888	     49.33468897	      6.43431604	      0.86105276	    -10.23387729	     -2.40812226	    -25.53358703	      0.00000000	      0.00000000	      0.00000000	      0.00000000	    -13.61811551	      0.00000000	     74.99963011	     90.00000001	      0.00000000	      0.00000000	      0.00000000	    -13.61811551	      0.00000000	     74.99963011	     90.00000001	      0.00000000	      0.00000000
     13.78500000	     -6.30175208	     -1.86384338	     -0.12696260	      0.77940931	      0.94928628	      0.48564542	     28.06827516	      1.17988537	     -5.17137819	     24.64264690	      6.25096954	      0.43009532	     -4.13998698	     -4.84400046	    -12.01026395	      6.14866885	     -5.26315793	     -9.26458369	     51.29416148	      6.43431604	      0.89525200	    -11.92027294	     -4.30019266	    -24.70797885	      0.00000000	      0.00000000	      0.00000000	      0.00000000	    -13.62088192	      0.00000000	     74.99963224	     90.00000001	      0.00000000	      0.00000000	      0.00000000	    -13.62088192	      0.00000000	     74.99963224	     90.00000001	      0.00000000	      0.00000000
     13.79000000	     -6.29467498	     -1.89749862	     -0.00939900	      0.77936660	      0.94931668	      0.48605851	     27.86716253	      1.27524052	     -5.09635820	     25.10227150	      6.25096954	      0.43811729	     -3.33856828	     -4.94174420	    -10.56425028	      7.09721726	     -5.23953146	     -8.94203613	     53.02022854	      6.43431604	      0.92537756	    -13.89171587	     -5.80635115	    -24.05059969	      0.00000000	      0.00000000	      0.00000000	      0.00000000	    -13.64156424	      0.00000000	     74.99964811	     90.00000001	      0.00000000	      0.00000000	      0.00000000	    -13.64156424	      0.00000000	     74.99964811	     90.00000001	      0.00000000	      0.00000000
     13.79500000	     -6.22155728	     -2.12649041	      0.11612515	      0.77917383	      0.94944092	      0.48642651	     27.51683993	      1.57091155	     -5.10876974	     25.33787406	      6.25096954	      0.44222933	     -3.17407019	     -5.37438696	    -10.31498996	      8.03721543	     -5.44770846	     -8.63743762	     54.82771750	      6.43431604	      0.95692419	    -15.58557637	     -7.04514988	    -22.98835895	      0.00000000	      0.00000000	      0.00000000	      0.00000000	    -13.64442977	      0.00000000	     74.99965028	     90.00000001	      0.00000000	      0.00000000	      0.00000000	    -13.64442977	      0.00000000	     74.99965028	     90.00000001	      0.00000000	      0.00000000
     13.80000000	     -6.18441230	     -2.23231947	      0.26812994	      0.77911191	      0.94965878	      0.48674127	     27.17501500	      1.70831068	     -5.14210566	     25.54439202	      6.25096954	      0.44583375	     -2.90599714	     -5.72319582	     -9.87585848	      8.99486333	     -5.48302936	     -8.29441954	     56.50711269	      6.43431604	      0.98623517	    -17.37584549	     -8.44539326	    -21.38587815	      0.00000000	      0.00000000	      0.00000000	      0.00000000	    -13.64877247	      0.00000000	     74.99965358	     90.00000001	      0.00000000	      0.00000000	      0.00000000	    -13.64877247	      0.00000000	     74.99965358	     90.00000001	      0.00000000	      0.00000000
     13.80500000	     -6.12519526	     -2.35463538	      0.36965060	      0.77908144	      0.94990481	      0.48701179	     26.79817889	      1.85219018	     -5.22889370	     25.77985459	      6.25096954	      0.44994334	     -2.23485564	     -5.55983753	     -8.99236862	      9.93232574	     -5.53379162	     -8.00359854	     58.16981324	      6.43431604	      1.01525477	    -18.67898193	     -9.30498590	    -18.34732444	      0.00000000	      0.00000000	      0.00000000	      0.00000000	    -13.66147739	      0.00000000	     74.99966316	     90.00000001	      0.00000000	      0.00000000	      0.00000000	    -13.66147739	      0.00000000	     74.99966316	     90.00000001	      0.00000000	      0.00000000
     13.81000000	     -6.08167329	     -2.52839980	      0.56583278	      0.77888922	      0.95011076	      0.48705193	     26.38700105	      2.00812264	     -5.37365633	     25.87441105	      6.25096954	      0.45159366	     -1.92561291	     -5.75077467	     -8.88301487	     10.92523725	     -5.59893263	     -7.58747133	     59.78945008	      6.43431604	      1.04352276	    -20.37523057	    -10.61990312	    -16.45281190	      0.00000000	      0.00000000	      0.00000000	      0.00000000	    -13.66484179	      0.00000000	     74.99966568	     90.00000001	      0.00000000	      0.00000000	      0.00000000	    -13.66484179	      0.00000000	     74.99966568	     90.00000001	      0.00000000	      0.00000000
     13.81500000	     -6.06559542	     -2.55880670	      0.69580523	      0.77860605	      0.95035484	      0.48712880	     26.05216361	      2.02446710	     -5.45411456	     26.08247960	      6.25096954	      0.45522515	     -1.30384854	     -5.53930061	     -8.33897963	     11.90886448	     -5.48895015	     -7.24091764	     61.33809303	      6.43431604	      1.07055168	    -20.69077806	    -10.74808123	    -11.13777496	      0.00000000	      0.00000000	      0.00000000	      0.00000000	    -13.68104454	      0.00000000	     74.99967774	     90.00000001	      0.00000000	      0.00000000	      0.00000000	    -13.68104454	      0.00000000	     74.99967774	     90.00000001	      0.00000000	      0.00000000
     13.82000000	     -6.02664622	     -2.72678492	      0.81869453	      0.77842234	      0.95065317	      0.48715268	     25.62041197	      2.18807279	     -5.57288605	     26.11746886	      6.25096954	      0.45583582	     -0.99522445	     -5.59916757	     -8.32311364	     12.82330246	     -5.55560250	     -6.92839127	     62.73670651	      6.43431604	      1.09496209	    -21.42938628	    -11.41763227	    -10.41955116	      0.00000000	      0.00000000	      0.00000000	      0.00000000	    -13.68368392	      0.00000000	     74.99967969	     90.00000001	      0.00000000	      0.00000000	      0.00000000	    -13.68368392	      0.00000000	     74.99967969	     90.00000001	      0.00000000	      0.00000000
     13.82500000	     -5.82712658	     -2.56687039	      0.72904200	      0.77849138	      0.95150929	      0.48750159	     24.97116402	      2.11340346	     -5.33563108	     26.06719012	      6.25096954	      0.45495829	     -0.81448083	     -5.58170233	     -8.36199897	     13.35815250	     -5.29494111	     -6.89276681	     63.80139409	      6.43431604	      1.11354439	    -21.40437705	    -11.57266241	    -10.43268249	      0.00000000	      0.00000000	      0.00000000	      0.00000000	    -13.68402544	      0.00000000	     74.99967994	     90.00000001	      0.00000000	      0.00000000	      0.00000000	    -13.68402544	      0.00000000	     74.99967994	     90.00000001	      0.00000000	      0.00000000
